<svg width="17" height="14" viewBox="0 0 17 14" fill="none" xmlns="http://www.w3.org/2000/svg">
<path d="M17 1.65814C16.3678 1.93545 15.6942 2.11926 14.9919 2.20851C15.7144 1.77714 16.2658 1.09926 16.5251 0.282199C15.8514 0.683824 15.1077 0.967512 14.3151 1.12582C13.6754 0.444762 12.7638 0.0229492 11.7693 0.0229492C9.83981 0.0229492 8.28644 1.58907 8.28644 3.50901C8.28644 3.78526 8.30981 4.05089 8.36719 4.30376C5.46975 4.16245 2.90594 2.77376 1.18362 0.658324C0.882937 1.18001 0.706563 1.77714 0.706563 2.41995C0.706563 3.62695 1.32812 4.69689 2.25463 5.31632C1.69469 5.3057 1.14538 5.14314 0.68 4.88707C0.68 4.8977 0.68 4.91151 0.68 4.92532C0.68 6.61895 1.88806 8.0257 3.47225 8.34976C3.18856 8.42732 2.87937 8.46451 2.5585 8.46451C2.33538 8.46451 2.11012 8.45176 1.89869 8.40501C2.35025 9.7852 3.63163 10.7999 5.15525 10.8328C3.9695 11.7604 2.46394 12.3193 0.834063 12.3193C0.54825 12.3193 0.274125 12.3065 0 12.2714C1.54381 13.267 3.37344 13.8354 5.3465 13.8354C11.7597 13.8354 15.266 8.52295 15.266 3.91807C15.266 3.76401 15.2607 3.61526 15.2533 3.46757C15.9449 2.9767 16.5261 2.36364 17 1.65814Z" fill="#F7F7EE"/>
</svg>
