<svg width="15" height="16" viewBox="0 0 15 16" fill="none" xmlns="http://www.w3.org/2000/svg">
<path d="M14.9963 15.4291V15.4285H15V9.90996C15 7.21025 14.4247 5.13062 11.3004 5.13062C9.79839 5.13062 8.79045 5.96322 8.37897 6.75257H8.33552V5.38265H5.37317V15.4285H8.45779V10.4542C8.45779 9.14444 8.70356 7.87797 10.3092 7.87797C11.8912 7.87797 11.9148 9.37265 11.9148 10.5382V15.4291H14.9963Z" fill="#F7F7EE"/>
<path d="M0.223877 5.35474H3.35821V15.2055H0.223877V5.35474Z" fill="#F7F7EE"/>
<path d="M1.79104 0.429199C0.802303 0.429199 0 1.22776 0 2.21189C0 3.19602 0.802303 4.01129 1.79104 4.01129C2.77979 4.01129 3.58209 3.19602 3.58209 2.21189C3.58147 1.22776 2.77916 0.429199 1.79104 0.429199V0.429199Z" fill="#F7F7EE"/>
</svg>
