<svg width="56" height="69" viewBox="0 0 56 69" fill="none" xmlns="http://www.w3.org/2000/svg">
<path d="M46.3673 38.7493C44.4968 29.3355 53.4321 23.8144 53.4321 23.8144C53.4321 23.8144 49.9508 18.7778 44.1 17.482C38.2521 16.1835 35.3252 17.8059 32.4041 19.0227C29.4802 20.2426 28.0211 20.2426 28.0211 20.2426C23.8016 20.2426 20.717 15.7749 12.6777 17.8089C7.13915 19.2066 1.30867 25.6003 0.255239 33.2312C-0.798195 40.865 1.47507 50.6056 5.85804 58.1548C10.241 65.7099 14.7058 68.5492 17.8748 68.6309C21.0439 68.7096 24.2072 66.3606 28.0211 65.7886C31.8381 65.2225 34.1871 67.1719 37.931 68.2253C41.6603 69.2759 42.9677 68.3012 47.2631 64.6477C51.5702 60.9941 55.4689 50.5153 55.4689 50.5153C55.4689 50.5153 48.2378 48.1689 46.3673 38.7493Z" fill="black"/>
<path d="M38.0856 11.3918C42.2292 7.1694 40.8257 0.632751 40.8257 0.632751C40.8257 0.632751 35.007 1.65412 31.1083 5.71026C27.2126 9.76937 27.8575 16.1805 27.8575 16.1805C27.8575 16.1805 33.9418 15.6115 38.0856 11.3918Z" fill="black"/>
</svg>
