<svg width="582" height="471" viewBox="0 0 582 471" fill="none" xmlns="http://www.w3.org/2000/svg">
<circle cx="284.764" cy="179.929" r="144.5" stroke="#4F9CF9" stroke-width="2" stroke-dasharray="15 15"/>
<circle cx="181.875" cy="325.429" r="144.5" stroke="#4F9CF9" stroke-width="2" stroke-dasharray="15 15"/>
<circle cx="400.125" cy="325.429" r="144.5" stroke="#4F9CF9" stroke-width="2" stroke-dasharray="15 15"/>
<circle cx="429.225" cy="183.047" r="36.375" fill="white"/>
<g clip-path="url(#clip0_5_36909)">
<path d="M423.379 184.326C420.861 184.326 418.812 186.375 418.812 188.893V200.305C418.812 202.823 420.861 204.872 423.379 204.872C425.898 204.872 427.946 202.823 427.946 200.305V188.893C427.946 186.375 425.898 184.326 423.379 184.326Z" fill="#FF4340"/>
<path d="M416.257 184.326H411.835C409.397 184.326 407.414 186.309 407.414 188.747C407.414 191.185 409.397 193.168 411.835 193.168C414.273 193.168 416.257 191.185 416.257 188.747V184.326Z" fill="#FF4340"/>
<path d="M407.4 177.201C407.4 179.72 409.449 181.768 411.967 181.768H423.38C425.898 181.768 427.947 179.72 427.947 177.201C427.947 174.683 425.898 172.635 423.38 172.635H411.967C409.449 172.634 407.4 174.683 407.4 177.201V177.201Z" fill="#36C6FF"/>
<path d="M423.527 170.077H427.948V165.655C427.948 163.217 425.965 161.234 423.527 161.234C421.089 161.234 419.105 163.218 419.105 165.655C419.105 168.093 421.089 170.077 423.527 170.077Z" fill="#36C6FF"/>
<path d="M435.071 181.768C437.589 181.768 439.638 179.719 439.638 177.201V165.789C439.638 163.271 437.589 161.222 435.071 161.222C432.553 161.222 430.504 163.271 430.504 165.789V177.201C430.504 179.719 432.553 181.768 435.071 181.768Z" fill="#0DC46E"/>
<path d="M442.195 181.769H446.617C449.055 181.769 451.038 179.785 451.038 177.347C451.038 174.909 449.054 172.926 446.617 172.926C444.179 172.926 442.195 174.909 442.195 177.347V181.769Z" fill="#0DC46E"/>
<path d="M451.05 188.893C451.05 186.375 449.001 184.326 446.483 184.326H435.071C432.553 184.326 430.504 186.375 430.504 188.893C430.504 191.411 432.553 193.46 435.071 193.46H446.483C449.001 193.46 451.05 191.411 451.05 188.893Z" fill="#FDCB02"/>
<path d="M434.925 196.017H430.504V200.438C430.504 202.876 432.487 204.86 434.925 204.86C437.363 204.86 439.346 202.876 439.346 200.438C439.346 198.001 437.363 196.017 434.925 196.017Z" fill="#FDCB02"/>
</g>
<circle cx="36.375" cy="313.997" r="36.375" fill="white"/>
<g clip-path="url(#clip1_5_36909)">
<path d="M56.8352 301.721H37.7383C36.9854 301.721 36.3743 302.332 36.3743 303.085C36.3743 303.838 36.9854 304.449 37.7383 304.449H52.8603L44.4795 310.967L38.4695 307.144L37.0072 309.447L43.8275 313.785C44.0485 313.927 44.3049 313.998 44.5586 313.998C44.8533 313.998 45.1506 313.902 45.3962 313.711L55.4711 305.873V323.546H37.7383C36.9854 323.546 36.3743 324.157 36.3743 324.91C36.3743 325.663 36.9854 326.274 37.7383 326.274H56.8352C57.5882 326.274 58.1993 325.663 58.1993 324.91V303.085C58.1993 302.332 57.5882 301.721 56.8352 301.721Z" fill="#1976D2"/>
<path d="M38.6094 293.85C38.2984 293.591 37.881 293.479 37.4881 293.561L15.6631 297.653C15.0166 297.774 14.55 298.336 14.55 298.993V329.002C14.55 329.657 15.0166 330.222 15.6631 330.342L37.4881 334.434C37.57 334.45 37.6545 334.459 37.7391 334.459C38.0556 334.459 38.3639 334.35 38.6094 334.145C38.9231 333.886 39.1032 333.498 39.1032 333.095V294.901C39.1032 294.494 38.9231 294.11 38.6094 293.85Z" fill="#2196F3"/>
<path d="M26.8274 323.546C23.068 323.546 20.0071 319.874 20.0071 315.361C20.0071 310.849 23.068 307.177 26.8274 307.177C30.5867 307.177 33.6477 310.849 33.6477 315.361C33.6477 319.874 30.5867 323.546 26.8274 323.546ZM26.8274 309.905C24.5712 309.905 22.7352 312.352 22.7352 315.361C22.7352 318.37 24.5712 320.818 26.8274 320.818C29.0836 320.818 30.9196 318.37 30.9196 315.361C30.9196 312.352 29.0836 309.905 26.8274 309.905Z" fill="#FAFAFA"/>
</g>
<circle cx="545.625" cy="313.997" r="36.375" fill="white"/>
<g clip-path="url(#clip2_5_36909)">
<path d="M545.586 305.961L536.527 321.674H536.501L541.748 328.072L529.976 333.011C529.745 332.883 529.566 332.704 529.464 332.525L523.936 322.288C523.655 321.725 523.885 321.29 523.962 321.034L538.779 295.443C538.881 295.289 539.035 295.136 539.24 295.008H539.265L546.866 297.362L545.586 305.961Z" fill="#59C36A"/>
<path d="M567.45 321.674L557.187 328.072L554.756 321.674L545.586 305.961L539.265 295.008C539.444 294.88 539.674 294.803 539.879 294.803H551.378C551.634 294.88 552.146 294.854 552.478 295.443L567.296 321.034C567.398 321.213 567.45 321.444 567.45 321.674Z" fill="#FFDA2D"/>
<path d="M552.48 295.444C552.147 294.855 551.635 294.881 551.379 294.804H545.587V305.962L554.757 321.675L557.189 328.073L567.451 321.675C567.451 321.445 567.399 321.214 567.297 321.035L552.48 295.444Z" fill="#FDBF00"/>
<path d="M567.45 321.674C567.45 321.905 567.399 322.135 567.322 322.289L561.794 332.525C561.589 332.858 561.103 333.19 560.668 333.19H530.59C530.385 333.19 530.155 333.114 529.976 333.011L536.501 321.674H567.45Z" fill="#4086F4"/>
<path d="M545.587 333.19H560.669C561.104 333.19 561.59 332.858 561.795 332.525L567.323 322.288C567.4 322.135 567.451 321.904 567.451 321.674H545.587V333.19H545.587Z" fill="#4175DF"/>
</g>
<circle cx="139.264" cy="183.047" r="36.375" fill="white"/>
<g clip-path="url(#clip3_5_36909)">
<path d="M126.013 193.881V190.374L131.937 193.803L139.264 186.944V202.533L126.013 193.881Z" fill="#0093EB"/>
<path d="M118.921 184.606L126.638 177.591L139.265 185.386L131.938 192.245L118.921 184.606Z" fill="#0093EB"/>
<path d="M126.637 177.591L117.439 170.575L130.69 163.56L140.043 169.796L126.637 177.591Z" fill="#0093EB"/>
<path d="M152.514 193.959L139.263 202.533V186.944L146.824 193.491L152.514 189.906V193.959Z" fill="#0093EB"/>
<path d="M146.824 191.932L139.263 185.385L151.968 177.278L159.607 183.826L146.824 191.932Z" fill="#0093EB"/>
<path d="M151.968 177.279L140.042 169.796L149.396 163.56L161.088 170.575L151.968 177.279Z" fill="#0093EB"/>
</g>
<circle cx="291" cy="416.886" r="36.375" fill="white"/>
<g clip-path="url(#clip4_5_36909)">
<path d="M308.938 408.02H273.132C272.425 408.02 271.853 407.448 271.853 406.741V398.897C271.853 396.782 273.574 395.061 275.689 395.061H306.381C308.496 395.061 310.217 396.782 310.217 398.897V406.741C310.217 407.448 309.645 408.02 308.938 408.02Z" fill="#E3E7EA"/>
<path d="M306.38 395.061H291.035V408.02H308.938C309.645 408.02 310.217 407.448 310.217 406.741V398.897C310.217 396.782 308.496 395.061 306.38 395.061Z" fill="#BABAC0"/>
<path d="M271.804 422.086C271.804 422.085 271.805 422.084 271.805 422.084L269.26 409.963C269.081 408.813 269.388 407.662 270.105 406.817C270.846 405.948 271.92 405.462 273.046 405.462H308.955C310.08 405.462 311.154 405.948 311.896 406.817C312.612 407.662 312.919 408.813 312.74 409.912L310.196 422.09L312.74 434.21C312.919 435.361 312.612 436.512 311.896 437.355C311.154 438.225 310.08 438.711 308.955 438.711H273.046C271.92 438.711 270.846 438.225 270.104 437.355C269.388 436.512 269.081 435.361 269.26 434.261C269.26 434.261 271.76 422.298 271.804 422.086Z" fill="#4086F4"/>
<path d="M271.805 422.084C271.805 422.084 271.804 422.085 271.804 422.086H310.196L312.74 409.912C312.919 408.813 312.612 407.662 311.896 406.817C311.154 405.948 310.08 405.462 308.955 405.462H273.046C271.92 405.462 270.846 405.948 270.104 406.817C269.388 407.662 269.081 408.813 269.26 409.963L271.805 422.084Z" fill="#4175DF"/>
<path d="M278.212 402.734C278.918 402.734 279.491 402.161 279.491 401.455C279.491 400.749 278.918 400.176 278.212 400.176C277.506 400.176 276.933 400.749 276.933 401.455C276.933 402.161 277.506 402.734 278.212 402.734Z" fill="#FFF5F5"/>
<path d="M303.788 402.734C304.495 402.734 305.067 402.161 305.067 401.455C305.067 400.749 304.495 400.176 303.788 400.176C303.082 400.176 302.51 400.749 302.51 401.455C302.51 402.161 303.082 402.734 303.788 402.734Z" fill="#E3E7EA"/>
<path d="M285.885 431.038C283.722 431.038 281.782 429.668 281.062 427.628C280.826 426.962 281.174 426.231 281.841 425.997C282.504 425.759 283.237 426.11 283.472 426.776C283.833 427.795 284.803 428.48 285.885 428.48C287.295 428.48 288.442 427.333 288.442 425.923C288.442 424.513 287.295 423.365 285.885 423.365H284.295C283.589 423.365 283.016 422.793 283.016 422.086C283.016 421.38 283.589 420.808 284.295 420.808H285.885C287.295 420.808 288.442 419.66 288.442 418.25C288.442 416.84 287.295 415.692 285.885 415.692C284.803 415.692 283.833 416.378 283.472 417.397C283.237 418.064 282.503 418.414 281.841 418.176C281.174 417.942 280.826 417.211 281.062 416.545C281.782 414.505 283.722 413.135 285.885 413.135C288.706 413.135 291 415.429 291 418.25C291 419.776 290.328 421.149 289.264 422.086C290.328 423.024 291 424.397 291 425.923C291 428.744 288.706 431.038 285.885 431.038Z" fill="#FFF5F5"/>
<path d="M281.841 418.176C282.503 418.414 283.237 418.064 283.472 417.397C283.833 416.378 284.803 415.692 285.885 415.692C287.295 415.692 288.442 416.84 288.442 418.25C288.442 419.66 287.295 420.808 285.885 420.808H284.295C283.589 420.808 283.016 421.379 283.016 422.086H289.264C290.328 421.148 291 419.776 291 418.25C291 415.429 288.706 413.135 285.885 413.135C283.722 413.135 281.782 414.505 281.062 416.545C280.826 417.211 281.174 417.942 281.841 418.176Z" fill="#E3E7EA"/>
<path d="M298.674 431.038C297.967 431.038 297.395 430.466 297.395 429.759V416.802L295.547 418.035C294.957 418.425 294.164 418.267 293.773 417.68C293.381 417.092 293.54 416.299 294.128 415.907L297.964 413.349C298.357 413.088 298.862 413.063 299.277 413.286C299.693 413.508 299.953 413.941 299.953 414.413V429.759C299.953 430.466 299.381 431.038 298.674 431.038Z" fill="#FFF5F5"/>
<path d="M295.547 418.035L297.395 416.803V422.086H299.953V414.414C299.953 413.942 299.693 413.508 299.277 413.286C298.862 413.064 298.357 413.089 297.964 413.35L294.128 415.907C293.54 416.3 293.381 417.093 293.773 417.681C294.164 418.268 294.957 418.425 295.547 418.035Z" fill="#E3E7EA"/>
</g>
<circle cx="287.882" cy="36.5078" r="36.375" fill="white"/>
<g clip-path="url(#clip5_5_36909)">
<path d="M304.252 20.1389H271.514V52.8764H304.252V20.1389Z" fill="#ECEFF1"/>
<path d="M287.882 39.9506L304.25 52.8765V27.3576L287.882 39.9506Z" fill="#CFD8DC"/>
<path d="M305.615 20.139H304.251L287.882 33.0649L271.514 20.139H270.15C267.891 20.139 266.057 21.9723 266.057 24.2312V48.7844C266.057 51.0432 267.891 52.8765 270.15 52.8765H271.514V27.3577L287.882 39.948L304.251 27.3549V52.8765H305.615C307.874 52.8765 309.707 51.0432 309.707 48.7844V24.2312C309.707 21.9723 307.874 20.139 305.615 20.139Z" fill="#F44336"/>
</g>
<circle cx="289.961" cy="278.661" r="51.9643" fill="white"/>
<path d="M265 266.314V275.395C265 278.161 268.454 279.636 270.565 277.7L280.641 268.619C282.848 266.636 281.408 263.133 278.386 263.133H268.31C266.487 263.133 265 264.562 265 266.314Z" fill="#5986EF"/>
<path d="M312.69 263.133H302.614C299.64 263.133 298.152 266.636 300.359 268.619L310.435 277.7C312.546 279.59 316 278.161 316 275.395V266.314C316 264.562 314.513 263.133 312.69 263.133Z" fill="#5986EF"/>
<path d="M292.779 285.307L310.435 301.257C312.546 303.147 316 301.718 316 298.952V289.778C316 288.902 315.616 288.073 314.944 287.473L292.779 267.42C291.484 266.268 289.516 266.268 288.221 267.42L266.056 287.473C265.384 288.073 265 288.902 265 289.778V298.952C265 301.718 268.454 303.193 270.565 301.257L288.221 285.307C289.516 284.154 291.484 284.154 292.779 285.307Z" fill="#5986EF"/>
<defs>
<clipPath id="clip0_5_36909">
<rect width="43.65" height="43.65" fill="white" transform="translate(407.4 161.222)"/>
</clipPath>
<clipPath id="clip1_5_36909">
<rect width="43.65" height="43.65" fill="white" transform="translate(14.55 292.172)"/>
</clipPath>
<clipPath id="clip2_5_36909">
<rect width="43.65" height="43.65" fill="white" transform="translate(523.8 292.172)"/>
</clipPath>
<clipPath id="clip3_5_36909">
<rect width="43.65" height="43.65" fill="white" transform="translate(117.439 161.222)"/>
</clipPath>
<clipPath id="clip4_5_36909">
<rect width="43.65" height="43.65" fill="white" transform="translate(269.175 395.061)"/>
</clipPath>
<clipPath id="clip5_5_36909">
<rect width="43.65" height="43.65" fill="white" transform="translate(266.057 14.6828)"/>
</clipPath>
</defs>
</svg>
