<svg width="211" height="71" viewBox="0 0 211 71" fill="none" xmlns="http://www.w3.org/2000/svg">
<path d="M90.2977 37.4655C90.2977 47.5097 82.4804 54.9111 72.8868 54.9111C63.2932 54.9111 55.476 47.5097 55.476 37.4655C55.476 27.3506 63.2932 20.02 72.8868 20.02C82.4804 20.02 90.2977 27.3506 90.2977 37.4655ZM82.676 37.4655C82.676 31.1889 78.1453 26.8944 72.8868 26.8944C67.6283 26.8944 63.0976 31.1889 63.0976 37.4655C63.0976 43.6792 67.6283 48.0367 72.8868 48.0367C78.1453 48.0367 82.676 43.6714 82.676 37.4655Z" fill="#EA4335"/>
<path d="M127.858 37.4655C127.858 47.5097 120.041 54.9111 110.447 54.9111C100.854 54.9111 93.0363 47.5097 93.0363 37.4655C93.0363 27.3584 100.854 20.02 110.447 20.02C120.041 20.02 127.858 27.3506 127.858 37.4655ZM120.236 37.4655C120.236 31.1889 115.706 26.8944 110.447 26.8944C105.189 26.8944 100.658 31.1889 100.658 37.4655C100.658 43.6792 105.189 48.0367 110.447 48.0367C115.706 48.0367 120.236 43.6714 120.236 37.4655Z" fill="#FBBC05"/>
<path d="M163.854 21.0739V52.3942C163.854 65.2778 156.294 70.5397 147.358 70.5397C138.946 70.5397 133.883 64.8845 131.974 60.2596L138.61 57.4831C139.791 60.3225 142.687 63.6732 147.35 63.6732C153.071 63.6732 156.615 60.1259 156.615 53.4481V50.939H156.349C154.643 53.0548 151.357 54.9032 147.21 54.9032C138.531 54.9032 130.581 47.3052 130.581 37.5285C130.581 27.6809 138.531 20.02 147.21 20.02C151.349 20.02 154.636 21.8683 156.349 23.9212H156.615V21.0818H163.854V21.0739ZM157.155 37.5285C157.155 31.3855 153.078 26.8944 147.89 26.8944C142.632 26.8944 138.226 31.3855 138.226 37.5285C138.226 43.6084 142.632 48.0367 147.89 48.0367C153.078 48.0367 157.155 43.6084 157.155 37.5285Z" fill="#4285F4"/>
<path d="M175.787 2.71576V53.8412H168.353V2.71576H175.787Z" fill="#34A853"/>
<path d="M204.756 43.2072L210.671 47.1714C208.762 50.0108 204.161 54.9031 196.211 54.9031C186.351 54.9031 178.987 47.2421 178.987 37.4575C178.987 27.083 186.413 20.012 195.358 20.012C204.364 20.012 208.77 27.2167 210.21 31.1101L211 33.0922L187.799 42.751C189.575 46.2511 192.337 48.0366 196.211 48.0366C200.092 48.0366 202.784 46.1174 204.756 43.2072ZM186.546 36.9305L202.056 30.4573C201.203 28.2785 198.636 26.7605 195.616 26.7605C191.742 26.7605 186.351 30.1977 186.546 36.9305Z" fill="#EA4335"/>
<path d="M27.3368 32.927V25.5257H52.1502C52.3928 26.8156 52.518 28.3415 52.518 29.9932C52.518 35.5462 51.0077 42.4128 46.1405 47.3051C41.4063 52.2603 35.3575 54.9031 27.3446 54.9031C12.4925 54.9031 0.00366211 42.7431 0.00366211 27.8145C0.00366211 12.8859 12.4925 0.725891 27.3446 0.725891C35.561 0.725891 41.4141 3.96646 45.8119 8.1902L40.616 13.4129C37.4625 10.4397 33.19 8.12728 27.3368 8.12728C16.4912 8.12728 8.00875 16.913 8.00875 27.8145C8.00875 38.716 16.4912 47.5017 27.3368 47.5017C34.3715 47.5017 38.378 44.6623 40.9446 42.0824C43.0261 39.9902 44.3955 37.0014 44.9354 32.9192L27.3368 32.927Z" fill="#4285F4"/>
</svg>
