<svg width="191" height="35" viewBox="0 0 191 35" fill="none" xmlns="http://www.w3.org/2000/svg">
<g clip-path="url(#clip0_5_37081)">
<path d="M0 5.79445V12.5474C0 14.6041 2.50611 15.7011 4.03763 14.2614L11.3471 7.5084C12.9483 6.0344 11.904 3.4292 9.71119 3.4292H2.40169C1.07902 3.4292 0 4.49185 0 5.79445Z" fill="white"/>
<path d="M34.5982 3.4292H27.2887C25.1307 3.4292 24.0517 6.0344 25.6528 7.5084L32.9623 14.2614C34.4938 15.6668 36.9999 14.6041 36.9999 12.5474V5.79445C36.9999 4.49185 35.9209 3.4292 34.5982 3.4292Z" fill="white"/>
<path d="M20.1533 19.9173L32.9624 31.7779C34.4939 33.1833 37 32.1206 37 30.0639V23.2424C37 22.5911 36.7215 21.9741 36.2342 21.5284L20.1533 6.6171C19.2135 5.76012 17.7865 5.76012 16.8467 6.6171L0.765757 21.5284C0.278457 21.9741 0 22.5911 0 23.2424V30.0639C0 32.1206 2.50611 33.2176 4.03763 31.7779L16.8467 19.9173C17.7865 19.0604 19.2135 19.0604 20.1533 19.9173Z" fill="white"/>
</g>
<path d="M51.7031 27.9292L47.5469 12.6565H51.8324L54.1989 22.9178H54.3381L56.804 12.6565H61.0099L63.5156 22.8582H63.6449L65.9716 12.6565H70.2472L66.1009 27.9292H61.6165L58.9915 18.3241H58.8026L56.1776 27.9292H51.7031ZM76.7425 19.0997V27.9292H72.5067V7.56556H76.6232V15.3511H76.8022C77.1469 14.4496 77.7037 13.7436 78.4727 13.2332C79.2416 12.7161 80.2061 12.4576 81.3661 12.4576C82.4267 12.4576 83.3514 12.6896 84.1403 13.1536C84.9357 13.611 85.5522 14.2706 85.9897 15.1323C86.4338 15.9874 86.6526 17.0116 86.646 18.2048V27.9292H82.4102V18.9604C82.4168 18.0192 82.1781 17.2867 81.6942 16.763C81.217 16.2393 80.5475 15.9775 79.6857 15.9775C79.109 15.9775 78.5986 16.1001 78.1545 16.3454C77.717 16.5907 77.3723 16.9486 77.1204 17.4193C76.8751 17.8833 76.7492 18.4434 76.7425 19.0997ZM89.9794 27.9292V12.6565H94.2152V27.9292H89.9794ZM92.1072 10.6877C91.4775 10.6877 90.9373 10.4789 90.4865 10.0613C90.0424 9.63706 89.8203 9.12996 89.8203 8.53999C89.8203 7.95666 90.0424 7.45619 90.4865 7.03857C90.9373 6.61433 91.4775 6.40221 92.1072 6.40221C92.737 6.40221 93.2739 6.61433 93.718 7.03857C94.1688 7.45619 94.3942 7.95666 94.3942 8.53999C94.3942 9.12996 94.1688 9.63706 93.718 10.0613C93.2739 10.4789 92.737 10.6877 92.1072 10.6877ZM105.732 12.6565V15.8383H96.5344V12.6565H105.732ZM98.6225 8.99738H102.858V23.236C102.858 23.6271 102.918 23.932 103.037 24.1508C103.157 24.3629 103.322 24.5121 103.534 24.5982C103.753 24.6844 104.005 24.7275 104.29 24.7275C104.489 24.7275 104.688 24.7109 104.887 24.6778C105.086 24.638 105.238 24.6082 105.344 24.5883L106.01 27.7403C105.798 27.8066 105.5 27.8828 105.115 27.969C104.731 28.0618 104.264 28.1181 103.713 28.138C102.693 28.1778 101.798 28.0419 101.029 27.7303C100.266 27.4188 99.6732 26.9349 99.2489 26.2786C98.8247 25.6224 98.6159 24.7938 98.6225 23.7928V8.99738ZM115.287 28.2275C113.716 28.2275 112.364 27.9093 111.23 27.2729C110.104 26.63 109.235 25.7218 108.625 24.5485C108.016 23.3686 107.711 21.9732 107.711 20.3624C107.711 18.7914 108.016 17.4126 108.625 16.2261C109.235 15.0395 110.094 14.1148 111.201 13.4519C112.314 12.789 113.62 12.4576 115.118 12.4576C116.126 12.4576 117.064 12.62 117.932 12.9448C118.807 13.263 119.569 13.7436 120.219 14.3866C120.875 15.0296 121.386 15.8383 121.75 16.8127C122.115 17.7805 122.297 18.914 122.297 20.2133V21.3766H109.401V18.7516H118.31C118.31 18.1418 118.177 17.6015 117.912 17.1309C117.647 16.6603 117.279 16.2924 116.809 16.0272C116.345 15.7554 115.804 15.6195 115.188 15.6195C114.545 15.6195 113.975 15.7687 113.478 16.067C112.987 16.3586 112.603 16.7531 112.324 17.2502C112.046 17.7408 111.903 18.2876 111.897 18.8908V21.3866C111.897 22.1423 112.036 22.7952 112.314 23.3454C112.599 23.8956 113 24.3198 113.517 24.6181C114.034 24.9164 114.648 25.0656 115.357 25.0656C115.828 25.0656 116.258 24.9993 116.65 24.8667C117.041 24.7341 117.375 24.5353 117.654 24.2701C117.932 24.005 118.144 23.6801 118.29 23.2957L122.208 23.5542C122.009 24.4955 121.601 25.3175 120.985 26.0201C120.375 26.7161 119.586 27.2597 118.618 27.6508C117.657 28.0353 116.547 28.2275 115.287 28.2275ZM125.061 33.6565V12.6565H129.238V15.2218H129.426C129.612 14.8108 129.881 14.3932 130.232 13.969C130.59 13.5381 131.054 13.1801 131.624 12.8951C132.201 12.6034 132.917 12.4576 133.772 12.4576C134.885 12.4576 135.913 12.7493 136.854 13.3326C137.795 13.9093 138.548 14.781 139.111 15.9477C139.675 17.1077 139.956 18.5627 139.956 20.3127C139.956 22.0163 139.681 23.4548 139.131 24.6281C138.587 25.7947 137.845 26.6797 136.904 27.2829C135.969 27.8795 134.922 28.1778 133.762 28.1778C132.94 28.1778 132.24 28.0419 131.664 27.7701C131.094 27.4983 130.626 27.1569 130.262 26.746C129.897 26.3283 129.619 25.9074 129.426 25.4832H129.297V33.6565H125.061ZM129.208 20.2928C129.208 21.201 129.334 21.9931 129.586 22.6693C129.837 23.3454 130.202 23.8724 130.679 24.2502C131.157 24.6214 131.737 24.807 132.419 24.807C133.109 24.807 133.692 24.6181 134.169 24.2403C134.647 23.8558 135.008 23.3255 135.253 22.6494C135.505 21.9666 135.631 21.1811 135.631 20.2928C135.631 19.4112 135.508 18.6356 135.263 17.9661C135.018 17.2966 134.657 16.7729 134.179 16.3951C133.702 16.0173 133.115 15.8283 132.419 15.8283C131.73 15.8283 131.147 16.0106 130.669 16.3752C130.199 16.7398 129.837 17.2569 129.586 17.9264C129.334 18.5959 129.208 19.3847 129.208 20.2928ZM147.135 28.2176C146.161 28.2176 145.292 28.0485 144.53 27.7104C143.768 27.3658 143.165 26.8586 142.721 26.1891C142.283 25.513 142.064 24.6711 142.064 23.6636C142.064 22.8151 142.22 22.1025 142.532 21.5258C142.843 20.9491 143.267 20.4851 143.804 20.1337C144.341 19.7824 144.951 19.5173 145.634 19.3383C146.323 19.1593 147.046 19.0334 147.801 18.9604C148.69 18.8676 149.406 18.7815 149.949 18.7019C150.493 18.6158 150.887 18.4898 151.132 18.3241C151.378 18.1584 151.5 17.9131 151.5 17.5883V17.5286C151.5 16.8989 151.301 16.4117 150.904 16.067C150.513 15.7223 149.956 15.5499 149.233 15.5499C148.471 15.5499 147.864 15.719 147.414 16.057C146.963 16.3885 146.665 16.8061 146.519 17.3099L142.601 16.9917C142.8 16.0637 143.191 15.2616 143.775 14.5854C144.358 13.9027 145.11 13.379 146.032 13.0144C146.96 12.6432 148.033 12.4576 149.253 12.4576C150.102 12.4576 150.914 12.557 151.689 12.7559C152.471 12.9548 153.164 13.263 153.767 13.6806C154.377 14.0982 154.858 14.6352 155.209 15.2914C155.56 15.941 155.736 16.7199 155.736 17.6281V27.9292H151.719V25.8113H151.6C151.355 26.2886 151.026 26.7095 150.615 27.0741C150.204 27.432 149.711 27.7138 149.134 27.9193C148.557 28.1181 147.891 28.2176 147.135 28.2176ZM148.348 25.2943C148.971 25.2943 149.522 25.1716 149.999 24.9264C150.476 24.6745 150.851 24.3364 151.123 23.9122C151.394 23.4879 151.53 23.0073 151.53 22.4704V20.8497C151.398 20.9358 151.215 21.0154 150.983 21.0883C150.758 21.1546 150.503 21.2176 150.218 21.2772C149.933 21.3302 149.648 21.38 149.363 21.4264C149.078 21.4661 148.819 21.5026 148.587 21.5357C148.09 21.6086 147.656 21.7247 147.284 21.8837C146.913 22.0428 146.625 22.2583 146.419 22.5301C146.214 22.7952 146.111 23.1266 146.111 23.5244C146.111 24.1011 146.32 24.5419 146.738 24.8468C147.162 25.1451 147.699 25.2943 148.348 25.2943ZM165.923 28.2275C164.359 28.2275 163.013 27.8961 161.886 27.2332C160.766 26.5637 159.904 25.6356 159.301 24.4491C158.704 23.2625 158.406 21.897 158.406 20.3525C158.406 18.7881 158.708 17.4159 159.311 16.236C159.921 15.0495 160.786 14.1247 161.906 13.4619C163.026 12.7924 164.359 12.4576 165.903 12.4576C167.235 12.4576 168.402 12.6996 169.403 13.1835C170.404 13.6674 171.196 14.3468 171.779 15.2218C172.363 16.0968 172.684 17.1243 172.744 18.3042H168.747C168.634 17.5419 168.336 16.9287 167.852 16.4647C167.375 15.9941 166.748 15.7587 165.973 15.7587C165.316 15.7587 164.743 15.9377 164.252 16.2957C163.769 16.647 163.391 17.1607 163.119 17.8369C162.847 18.513 162.711 19.3317 162.711 20.2928C162.711 21.2673 162.844 22.0959 163.109 22.7786C163.381 23.4614 163.762 23.9818 164.252 24.3397C164.743 24.6977 165.316 24.8766 165.973 24.8766C166.457 24.8766 166.891 24.7772 167.275 24.5783C167.666 24.3795 167.988 24.0911 168.24 23.7133C168.498 23.3288 168.667 22.8681 168.747 22.3312H172.744C172.678 23.4979 172.359 24.5253 171.789 25.4136C171.226 26.2952 170.447 26.9846 169.453 27.4818C168.458 27.9789 167.282 28.2275 165.923 28.2275ZM182.416 28.2275C180.845 28.2275 179.493 27.9093 178.359 27.2729C177.232 26.63 176.364 25.7218 175.754 24.5485C175.144 23.3686 174.839 21.9732 174.839 20.3624C174.839 18.7914 175.144 17.4126 175.754 16.2261C176.364 15.0395 177.223 14.1148 178.33 13.4519C179.443 12.789 180.749 12.4576 182.247 12.4576C183.255 12.4576 184.193 12.62 185.061 12.9448C185.936 13.263 186.698 13.7436 187.348 14.3866C188.004 15.0296 188.515 15.8383 188.879 16.8127C189.244 17.7805 189.426 18.914 189.426 20.2133V21.3766H176.53V18.7516H185.439C185.439 18.1418 185.306 17.6015 185.041 17.1309C184.776 16.6603 184.408 16.2924 183.938 16.0272C183.473 15.7554 182.933 15.6195 182.317 15.6195C181.674 15.6195 181.104 15.7687 180.607 16.067C180.116 16.3586 179.732 16.7531 179.453 17.2502C179.175 17.7408 179.032 18.2876 179.026 18.8908V21.3866C179.026 22.1423 179.165 22.7952 179.443 23.3454C179.728 23.8956 180.129 24.3198 180.646 24.6181C181.163 24.9164 181.777 25.0656 182.486 25.0656C182.956 25.0656 183.387 24.9993 183.778 24.8667C184.17 24.7341 184.504 24.5353 184.783 24.2701C185.061 24.005 185.273 23.6801 185.419 23.2957L189.337 23.5542C189.138 24.4955 188.73 25.3175 188.114 26.0201C187.504 26.7161 186.715 27.2597 185.747 27.6508C184.786 28.0353 183.676 28.2275 182.416 28.2275Z" fill="white"/>
<defs>
<clipPath id="clip0_5_37081">
<rect width="37" height="29" fill="white" transform="translate(0 3.4292)"/>
</clipPath>
</defs>
</svg>
