<svg width="281" height="72" viewBox="0 0 281 72" fill="none" xmlns="http://www.w3.org/2000/svg">
<g clip-path="url(#clip0_5_36826)">
<path d="M90.5051 55.7589L93.9911 47.7085C97.7581 50.5037 102.762 51.9573 107.71 51.9573C111.365 51.9573 113.67 50.5597 113.67 48.4352C113.614 42.5093 91.7983 47.1494 91.6296 32.2785C91.5734 24.7313 98.3204 18.9171 107.879 18.9171C113.557 18.9171 119.236 20.3148 123.284 23.5014L120.023 31.7195C116.312 29.3715 111.702 27.6943 107.316 27.6943C104.336 27.6943 102.369 29.0919 102.369 30.8809C102.425 36.6951 124.409 33.5085 124.634 47.7085C124.634 55.4234 118.055 60.8463 108.61 60.8463C101.694 60.8463 95.3405 59.225 90.5051 55.7589ZM224.264 44.8014C222.521 47.8203 219.26 49.8888 215.493 49.8888C209.927 49.8888 205.429 45.4163 205.429 39.8817C205.429 34.347 209.927 29.8746 215.493 29.8746C219.26 29.8746 222.521 31.9431 224.264 34.962L233.879 29.651C230.28 23.2778 223.365 18.9171 215.493 18.9171C203.855 18.9171 194.409 28.3093 194.409 39.8817C194.409 51.4541 203.855 60.8463 215.493 60.8463C223.421 60.8463 230.28 56.5415 233.879 50.1124L224.264 44.8014ZM129.469 1.53052H141.501V60.0636H129.469V1.53052ZM238.602 1.53052V60.0636H250.634V42.5093L264.915 60.0636H280.32L262.16 39.2108L278.971 19.7557H264.24L250.634 35.9124V1.53052H238.602ZM177.26 44.9132C175.517 47.7644 171.919 49.8888 167.871 49.8888C162.304 49.8888 157.806 45.4163 157.806 39.8817C157.806 34.347 162.304 29.8746 167.871 29.8746C171.919 29.8746 175.517 32.1108 177.26 35.0179V44.9132ZM177.26 19.7557V24.5077C175.292 21.2093 170.401 18.9171 165.284 18.9171C154.714 18.9171 146.393 28.1974 146.393 39.8258C146.393 51.4541 154.714 60.8463 165.284 60.8463C170.401 60.8463 175.292 58.5541 177.26 55.2557V60.0077H189.292V19.7557H177.26Z" fill="black"/>
<path d="M16.12 44.8572C16.12 48.9383 12.8027 52.2367 8.6983 52.2367C4.59388 52.2367 1.27661 48.9383 1.27661 44.8572C1.27661 40.7761 4.59388 37.4777 8.6983 37.4777H16.12V44.8572ZM19.8308 44.8572C19.8308 40.7761 23.1481 37.4777 27.2525 37.4777C31.3569 37.4777 34.6742 40.7761 34.6742 44.8572V63.306C34.6742 67.3871 31.3569 70.6855 27.2525 70.6855C23.1481 70.6855 19.8308 67.3871 19.8308 63.306V44.8572Z" fill="#E01E5A"/>
<path d="M27.2521 15.2273C23.1477 15.2273 19.8304 11.9289 19.8304 7.84779C19.8304 3.76669 23.1477 0.468262 27.2521 0.468262C31.3565 0.468262 34.6738 3.76669 34.6738 7.84779V15.2273H27.2521ZM27.2521 18.973C31.3565 18.973 34.6738 22.2714 34.6738 26.3525C34.6738 30.4336 31.3565 33.732 27.2521 33.732H8.64166C4.53724 33.732 1.21997 30.4336 1.21997 26.3525C1.21997 22.2714 4.53724 18.973 8.64166 18.973H27.2521Z" fill="#36C5F0"/>
<path d="M56.9951 26.3525C56.9951 22.2714 60.3124 18.973 64.4168 18.973C68.5212 18.973 71.8385 22.2714 71.8385 26.3525C71.8385 30.4336 68.5212 33.732 64.4168 33.732H56.9951V26.3525ZM53.2843 26.3525C53.2843 30.4336 49.967 33.732 45.8626 33.732C41.7582 33.732 38.4409 30.4336 38.4409 26.3525V7.84779C38.4409 3.76669 41.7582 0.468262 45.8626 0.468262C49.967 0.468262 53.2843 3.76669 53.2843 7.84779V26.3525Z" fill="#2EB67D"/>
<path d="M45.8626 55.9265C49.967 55.9265 53.2843 59.2249 53.2843 63.306C53.2843 67.3871 49.967 70.6855 45.8626 70.6855C41.7582 70.6855 38.4409 67.3871 38.4409 63.306V55.9265H45.8626ZM45.8626 52.2367C41.7582 52.2367 38.4409 48.9383 38.4409 44.8572C38.4409 40.7761 41.7582 37.4777 45.8626 37.4777H64.473C68.5775 37.4777 71.8947 40.7761 71.8947 44.8572C71.8947 48.9383 68.5775 52.2367 64.473 52.2367H45.8626Z" fill="#ECB22E"/>
</g>
<defs>
<clipPath id="clip0_5_36826">
<rect width="280" height="71" fill="white" transform="translate(0.825439 0.132812)"/>
</clipPath>
</defs>
</svg>
